<svg xmlns="http://www.w3.org/2000/svg" xmlns:svgjs="http://svgjs.com/svgjs" xmlns:xlink="http://www.w3.org/1999/xlink" width="288" height="288"><svg xmlns="http://www.w3.org/2000/svg" width="288" height="288" viewBox="0 0 64 64"><path fill="none" stroke="#fff" stroke-linecap="round" stroke-linejoin="round" stroke-width="2" d="M35 34h-3V16A12 12 0 0 1 44 4h4a12 12 0 0 1 12 12v18h-2.83" class="colorStroke000 svgStroke"/><circle cx="19" cy="18" r="11" fill="none" stroke="#fff" stroke-linecap="round" stroke-linejoin="round" stroke-width="2" class="colorStroke000 svgStroke"/><circle cx="46" cy="18" r="11" fill="none" stroke="#fff" stroke-linecap="round" stroke-linejoin="round" stroke-width="2" class="colorStroke000 svgStroke"/><path fill="none" stroke="#fff" stroke-linecap="round" stroke-linejoin="round" stroke-width="2" d="M27 32a4 4 0 0 1 3.49 4.41l-2.11 19a4 4 0 0 1-4 3.56h-10.8a4 4 0 0 1-4-3.56l-2.11-19A4 4 0 0 1 11.16 32a1.56 1.56 0 0 1 .31 0h15.06a3.91 3.91 0 0 1 .47 0z" class="colorStroke000 svgStroke"/><path fill="none" stroke="#fff" stroke-linecap="round" stroke-linejoin="round" stroke-width="2" d="m14.86 32 1.81 5.04 2.5 6.96 2.44-6.88L23.42 32M11.17 32.17 11 38h3v8l4.5 4.5M27 32.17 26.92 38h-2.84l-.16 7.92L19.58 50M18.92 58.75l.08-7.92M38 52l-.86-4L35 38.18l-.39-1.78a4 4 0 0 1 3.92-4.4h14.94a4 4 0 0 1 3.94 4.4l-.35 1.6-2.15 10" class="colorStroke000 svgStroke"/><path fill="none" stroke="#fff" stroke-linecap="round" stroke-linejoin="round" stroke-width="2" d="m54.9 48-.86 4H54M54 52l.33 1L57 59H35l2.9-6.78.1-.22h16zM37.5 48h17.41M35.83 38H57" class="colorStroke000 svgStroke"/></svg></svg>